<svg xmlns="http://www.w3.org/2000/svg" width="430" height="430" fill="none" viewBox="0 0 430 430"><path fill="#8cf981" d="M323.151 266.53a108.003 108.003 0 0 1-101.515 107.7 108.003 108.003 0 0 1-93.515-171.757 107.996 107.996 0 0 1 145.551-26.818 108 108 0 0 1 49.479 90.875"/><path fill="#ec008c" d="M165.88 217.42a250 250 0 0 0-4.7 49.11h-54.33a108 108 0 0 1 3.18-26.12c12.55-10.12 32.17-18.23 55.85-22.99m22.989 154.07a108.29 108.29 0 0 1-78.84-78.83c12.55 10.12 32.17 18.22 55.85 23 4.77 23.67 12.87 43.28 22.99 55.83m134.28-104.96a108 108 0 0 1-3.18 26.12c-12.55 10.12-32.17 18.22-55.85 23a250.4 250.4 0 0 0 4.7-49.12z"/><path fill="#00aec7" d="M106.85 266.52a108 108 0 0 0 3.18 26.12c12.55 10.12 32.17 18.22 55.85 23a250.4 250.4 0 0 1-4.7-49.12z"/><path fill="#ec008c" d="M268.82 266.53H215v-53.81a249.7 249.7 0 0 1 49.12 4.7 250.3 250.3 0 0 1 4.7 49.11m51.149-26.13c-12.55-10.11-32.17-18.22-55.85-23-4.77-23.69-12.87-43.3-23-55.86a108.3 108.3 0 0 1 78.85 78.86"/><path fill="#ec008c" d="M188.869 371.49a108.29 108.29 0 0 1-78.84-78.83c12.55 10.12 32.17 18.22 55.85 23 4.77 23.67 12.87 43.28 22.99 55.83" opacity=".5" style="mix-blend-mode:multiply"/><path fill="#8cf981" d="M241.131 371.49a108.28 108.28 0 0 0 78.84-78.83c-12.55 10.12-32.17 18.22-55.85 23-4.77 23.67-12.87 43.28-22.99 55.83" opacity=".5" style="mix-blend-mode:multiply"/><path fill="#ec008c" d="M268.82 266.53H215v-53.81a249.7 249.7 0 0 1 49.12 4.7 250.3 250.3 0 0 1 4.7 49.11m51.149-26.13c-12.55-10.11-32.17-18.22-55.85-23-4.77-23.69-12.87-43.3-23-55.86a108.3 108.3 0 0 1 78.85 78.86" opacity=".5" style="mix-blend-mode:multiply"/><path fill="#ec008c" d="M215.001 158.38v54.34a249.7 249.7 0 0 0-49.12 4.7c4.77-23.69 12.87-43.3 23-55.86a107.8 107.8 0 0 1 26.12-3.18"/><path fill="#8cf981" d="M215.001 374.68v-54.34a250 250 0 0 1-49.12-4.7c4.77 23.69 12.87 43.3 23 55.86a107.8 107.8 0 0 0 26.12 3.18" opacity=".5" style="mix-blend-mode:multiply"/><path fill="#8cf981" d="M214.999 266.53v53.82a250.5 250.5 0 0 1-49.12-4.7 250.5 250.5 0 0 1-4.7-49.12z"/><path fill="#ec008c" d="M264.12 315.65c-4.77 23.68-12.87 43.29-23 55.84a107.8 107.8 0 0 1-26.14 3.19v-54.33a250.5 250.5 0 0 0 49.14-4.7"/><path fill="#00aec7" d="M268.82 266.53a250.5 250.5 0 0 1-4.7 49.12 250.5 250.5 0 0 1-49.12 4.7v-53.82z"/><path fill="#8cf981" d="M264.12 217.42a249.7 249.7 0 0 0-49.12-4.7v-54.34a107.7 107.7 0 0 1 26.13 3.18c10.12 12.56 18.22 32.17 22.99 55.86m-49.121-4.7v53.81h-53.82a250.3 250.3 0 0 1 4.7-49.11 249.7 249.7 0 0 1 49.12-4.7"/><path fill="#00aec7" d="M264.12 217.42a249.7 249.7 0 0 0-49.12-4.7v-54.34a107.7 107.7 0 0 1 26.13 3.18c10.12 12.56 18.22 32.17 22.99 55.86"/><path fill="#8cf981" d="M214.999 212.72v53.81h-53.82a250.3 250.3 0 0 1 4.7-49.11 249.7 249.7 0 0 1 49.12-4.7" opacity=".5" style="mix-blend-mode:multiply"/><path fill="#e9ff91" d="M116.001 55.32h197.2v17.06a23 23 0 0 1-6.737 16.263 23 23 0 0 1-16.263 6.737h-151.23a23 23 0 0 1-23-23V55.32z"/><path fill="#e9ff91" d="M306.571 88.51a22.8 22.8 0 0 1-16.34 6.84h-151.26a23 23 0 0 1-23-23V55.32h8.6v11.56a23 23 0 0 0 23 23h151.26a22.8 22.8 0 0 0 7.74-1.37" opacity=".5" style="mix-blend-mode:multiply"/><path stroke="#6e2585" stroke-linecap="round" stroke-linejoin="round" stroke-width="3.5" d="M116.399 55.32h197.2v17.06a23 23 0 0 1-6.736 16.263 23 23 0 0 1-16.264 6.737h-151.23a23 23 0 0 1-23-23V55.32zM215 95.35v63.03m108.151 108.15a108 108 0 0 1-101.522 107.69 107.999 107.999 0 1 1 101.522-107.69"/><path stroke="#6e2585" stroke-linecap="round" stroke-linejoin="round" stroke-width="3.5" d="M319.969 292.66c-12.55 10.12-32.17 18.22-55.85 23a250.6 250.6 0 0 1-49.12 4.7 250.4 250.4 0 0 1-49.12-4.7c-23.69-4.77-43.3-12.87-55.85-23m0-52.25c12.55-10.11 32.16-18.22 55.85-23a249.6 249.6 0 0 1 49.12-4.7 249.7 249.7 0 0 1 49.12 4.7c23.68 4.76 43.3 12.87 55.85 23"/><path stroke="#6e2585" stroke-linecap="round" stroke-linejoin="round" stroke-width="3.5" d="M241.129 371.49c10.12-12.55 18.22-32.16 23-55.84a250.4 250.4 0 0 0 4.7-49.12 250.3 250.3 0 0 0-4.7-49.11c-4.77-23.69-12.87-43.3-23-55.85a108.6 108.6 0 0 0-52.25 0c-10.12 12.55-18.23 32.16-23 55.85a259 259 0 0 0 0 98.23c4.76 23.68 12.87 43.29 23 55.84M215 158.38v216.3m108.15-108.15h-216.3m241.15 0h27m-24.93-36.83 22.85-14.38m-22.85 88.04 22.85 14.38M82 266.53H55m24.93-36.83-22.86-14.38m22.86 88.04-22.86 14.38"/></svg>